<?xml version="1.0" standalone="no"?>
<!DOCTYPE svg PUBLIC "-//W3C//DTD SVG 20010904//EN"
 "http://www.w3.org/TR/2001/REC-SVG-20010904/DTD/svg10.dtd">
<svg version="1.0" xmlns="http://www.w3.org/2000/svg"
 width="1024.000000pt" height="1024.000000pt" viewBox="0 0 1024.000000 1024.000000"
 preserveAspectRatio="xMidYMid meet">
<metadata>
Created by potrace 1.15, written by Peter Selinger 2001-2017
</metadata>
<g transform="translate(0.000000,1024.000000) scale(0.100000,-0.100000)"
fill="#000000" stroke="none">
<path d="M4685 10225 c-1234 -105 -2376 -642 -3235 -1521 -725 -742 -1213
-1689 -1384 -2684 -60 -351 -61 -368 -61 -895 0 -527 1 -544 61 -895 223
-1298 978 -2491 2069 -3270 874 -624 1897 -950 2980 -950 1130 0 2190 353
3091 1031 937 704 1611 1727 1888 2861 102 417 146 785 146 1223 0 438 -44
806 -146 1223 -187 769 -556 1486 -1080 2102 -124 146 -414 437 -563 564 -752
640 -1651 1043 -2636 1181 -316 44 -806 57 -1130 30z m234 -1275 l134 -148 21
23 c18 20 65 32 326 84 168 34 312 61 321 61 13 0 298 -249 511 -447 l48 -43
12 -305 c9 -240 14 -305 25 -305 7 0 13 -9 13 -20 0 -14 7 -20 23 -20 53 -1
999 -99 1005 -104 3 -4 18 -219 34 -479 49 -828 127 -2078 158 -2522 44 -633
71 -1133 106 -1966 l6 -156 -613 -502 -614 -503 -165 6 c-914 34 -2396 261
-3440 527 -129 32 -292 77 -361 99 l-127 40 -6 62 c-3 35 -9 293 -12 573 -11
822 16 1528 112 2965 52 791 97 1353 136 1713 10 96 13 108 32 112 12 2 225
13 475 24 249 11 456 22 458 25 3 3 10 146 16 318 l10 313 220 265 c121 146
223 269 228 274 8 9 722 183 754 184 13 0 65 -49 154 -148z"/>
<path d="M4445 8508 c-231 -26 -424 -49 -430 -52 -10 -3 -60 -684 -52 -693 7
-6 752 30 761 38 4 4 22 132 38 285 l29 277 40 68 c28 46 39 77 37 96 l-3 29
-420 -48z"/>
<path d="M5427 8447 l-198 -10 5 -26 c3 -14 24 -150 47 -301 23 -151 44 -278
48 -281 7 -6 488 15 495 22 2 2 -15 139 -38 304 l-41 300 -60 1 c-33 1 -149
-3 -258 -9z"/>
</g>
</svg>
